<?xml version="1.0" encoding="UTF-8" standalone="no" ?>
<!DOCTYPE svg PUBLIC "-//W3C//DTD SVG 1.1//EN" "http://www.w3.org/Graphics/SVG/1.1/DTD/svg11.dtd">
<svg xmlns="http://www.w3.org/2000/svg" xmlns:xlink="http://www.w3.org/1999/xlink" version="1.1" width="1280" height="1024" viewBox="0 0 1280 1024" xml:space="preserve">
<desc>Created with Fabric.js 4.4.0</desc>
<defs>
</defs>
<g transform="matrix(1 0 0 1 640 512)" id="background-logo"  >
<rect style="stroke: none; stroke-width: 0; stroke-dasharray: none; stroke-linecap: butt; stroke-dashoffset: 0; stroke-linejoin: miter; stroke-miterlimit: 4; fill: rgb(255,255,255); fill-opacity: 0; fill-rule: nonzero; opacity: 1;"  paint-order="stroke"  x="-640" y="-512" rx="0" ry="0" width="1280" height="1024" />
</g>
<g transform="matrix(1.9211538461538462 0 0 1.9211538461538467 640.4267771701984 421.8517839547245)" id="logo-logo"  >
<g style=""  paint-order="stroke"   >
		<g transform="matrix(0.15749367265814668 0 0 -0.15749367265814668 -99.85575770793335 -81.10477496413591)"  >
<path style="stroke: none; stroke-width: 1; stroke-dasharray: none; stroke-linecap: butt; stroke-dashoffset: 0; stroke-linejoin: miter; stroke-miterlimit: 4; fill: rgb(255,255,255); fill-rule: evenodd; opacity: 1;"  paint-order="stroke"  transform=" translate(-255.789, -2284.55)" d="M 345.5 2472.71 C 290.05899999999997 2445.37 255.613 2382.64 229.16 2337.32 C 192.5 2274.6000000000004 168.922 2192.67 166.078 2096.3900000000003 L 167.75 2097.34 C 205.836 2119.54 224.738 2145.09 253.469 2164.32 C 253.469 2269.17 277.707 2358.03 316.84 2425 C 325.39799999999997 2439.67 334.82399999999996 2456.17 345.5 2472.71" stroke-linecap="round" />
</g>
		<g transform="matrix(0.15749367265814668 0 0 -0.15749367265814668 -13.748956156214945 -6.261510460984226)"  >
<path style="stroke: none; stroke-width: 1; stroke-dasharray: none; stroke-linecap: butt; stroke-dashoffset: 0; stroke-linejoin: miter; stroke-miterlimit: 4; fill: rgb(217,217,216); fill-rule: evenodd; opacity: 1;"  paint-order="stroke"  transform=" translate(-802.6365000000001, -1809.2350000000001)" d="M 619.867 1733.5 C 654.91 1786.4 755.191 1854.49 833.9839999999999 1854.49 L 848.887 1854.49 C 907.6129999999999 1854.49 955.391 1828.1200000000001 991.887 1803.83 C 1002.89 1796.5 1012.64 1788.6999999999998 1021.5 1780.73 C 1004.84 1798.54 986.41 1817.68 961.414 1834.31 C 924.91 1858.61 877.133 1884.97 818.398 1884.97 L 803.504 1884.97 C 719.965 1884.97 612.246 1808.42 583.773 1754.6 C 600.457 1743.4199999999998 610.039 1739.3899999999999 619.8670000000001 1733.5" stroke-linecap="round" />
</g>
		<g transform="matrix(0.15749367265814668 0 0 -0.15749367265814668 -59.29809869547762 26.43043040277624)"  >
<path style="stroke: none; stroke-width: 1; stroke-dasharray: none; stroke-linecap: butt; stroke-dashoffset: 0; stroke-linejoin: miter; stroke-miterlimit: 4; fill: rgb(217,217,216); fill-rule: evenodd; opacity: 1;"  paint-order="stroke"  transform=" translate(-513.363, -1601.6149999999998)" d="M 365.848 1527.79 C 391.707 1555.53 425.086 1583.83 442.13300000000004 1594.55 C 492.25800000000004 1626.09 537.414 1649.6299999999999 617.98 1649.6299999999999 L 621.711 1649.6299999999999 C 679.543 1649.6299999999999 693 1627.01 725.988 1604.9299999999998 C 724.363 1624.3899999999999 694.508 1664.33 682.2810000000001 1676.6899999999998 C 674.4530000000001 1684.61 668.2460000000001 1690.1799999999998 662.7850000000001 1694.4599999999998 C 676.527 1677.12 694.258 1650.2799999999997 695.5000000000001 1635.4099999999999 C 662.5230000000001 1657.4899999999998 649.0630000000001 1680.11 591.2270000000001 1680.11 L 587.5 1680.11 C 506.93399999999997 1680.11 461.777 1656.57 411.645 1625.05 C 383.18399999999997 1607.1299999999999 309.121 1540.1799999999998 300.738 1508.77 L 367.023 1533.07 C 366.64500000000004 1531.3 366.25800000000004 1529.54 365.848 1527.79" stroke-linecap="round" />
</g>
		<g transform="matrix(0.15749367265814668 0 0 -0.15749367265814668 -83.1061412535289 56.49269513065451)"  >
<path style="stroke: none; stroke-width: 1; stroke-dasharray: none; stroke-linecap: butt; stroke-dashoffset: 0; stroke-linejoin: miter; stroke-miterlimit: 4; fill: rgb(217,217,216); fill-rule: evenodd; opacity: 1;"  paint-order="stroke"  transform=" translate(-362.1624999999999, -1410.695)" d="M 358.477 1359.85 C 363.926 1419.6999999999998 386.79699999999997 1452.06 397.51199999999994 1502.59 L 353.15199999999993 1486.33 C 340.68799999999993 1451.47 326.81299999999993 1418.3899999999999 326.81299999999993 1363.5 L 326.81299999999993 1318.8 L 358.4769999999999 1359.85" stroke-linecap="round" />
</g>
		<g transform="matrix(0.15749367265814668 0 0 -0.15749367265814668 -73.40767889891038 88.89963321296338)"  >
<path style="stroke: none; stroke-width: 1; stroke-dasharray: none; stroke-linecap: butt; stroke-dashoffset: 0; stroke-linejoin: miter; stroke-miterlimit: 4; fill: rgb(217,217,216); fill-rule: evenodd; opacity: 1;"  paint-order="stroke"  transform=" translate(-423.7555, -1204.885)" d="M 482.031 1075.52 C 476.473 1081.66 471.5 1087.61 467.469 1093.09 C 413.578 1166.4199999999998 394.527 1208.34 392.723 1334.25 L 365.48 1298.94 C 372.961 1221.01 393.77000000000004 1182.38 436.98 1123.5700000000002 C 447.60900000000004 1109.1100000000001 464.797 1091.4700000000003 482.031 1075.5200000000002" stroke-linecap="round" />
</g>
		<g transform="matrix(0.15749367265814668 0 0 -0.15749367265814668 -57.28524787338358 116.76983705099818)"  >
<path style="stroke: none; stroke-width: 1; stroke-dasharray: none; stroke-linecap: butt; stroke-dashoffset: 0; stroke-linejoin: miter; stroke-miterlimit: 4; fill: rgb(217,217,216); fill-rule: evenodd; opacity: 1;"  paint-order="stroke"  transform=" translate(-526.1465, -1027.8870000000002)" d="M 411.965 1098.95 C 424.469 1084.66 440.17199999999997 1069.92 462.543 1050.91 C 491.184 1026.5600000000002 597.852 960.359 640.328 956.8240000000001 C 625.1329999999999 970.0310000000001 597.461 983.6410000000001 573.2379999999999 997.941 C 523.496 1018.4100000000001 454.28499999999997 1062.49 432.05899999999997 1081.38 C 424.676 1087.66 418.027 1093.47 411.965 1098.95" stroke-linecap="round" />
</g>
		<g transform="matrix(0.15749367265814668 0 0 -0.15749367265814668 -89.70543494902807 89.42640521866625)"  >
<path style="stroke: none; stroke-width: 1; stroke-dasharray: none; stroke-linecap: butt; stroke-dashoffset: 0; stroke-linejoin: miter; stroke-miterlimit: 4; fill: rgb(217,217,216); fill-rule: evenodd; opacity: 1;"  paint-order="stroke"  transform=" translate(-320.25199999999995, -1201.54)" d="M 299.816 1208.22 C 307.113 1184.94 315 1168.06 322.453 1166.22 L 340.688 1192.95 C 334.39099999999996 1205.44 327.57 1219.76 319.36699999999996 1236.8600000000001 L 299.816 1208.22" stroke-linecap="round" />
</g>
		<g transform="matrix(0.15749367265814668 0 0 -0.15749367265814668 -103.9817731588048 68.08337273646939)"  >
<path style="stroke: none; stroke-width: 1; stroke-dasharray: none; stroke-linecap: butt; stroke-dashoffset: 0; stroke-linejoin: miter; stroke-miterlimit: 4; fill: rgb(217,217,216); fill-rule: evenodd; opacity: 1;"  paint-order="stroke"  transform=" translate(-229.586, -1337.085)" d="M 211.68 1356.3 L 219.49200000000002 1284.6 C 229.14100000000002 1295.6899999999998 237.223 1318.1299999999999 247.49200000000002 1335.62 C 243.746 1358.4299999999998 241.39100000000002 1378.29 241.14800000000002 1389.57 C 228.81300000000002 1386.28 219.71500000000003 1372.01 211.68000000000004 1356.3" stroke-linecap="round" />
</g>
		<g transform="matrix(0.15749367265814668 0 0 -0.15749367265814668 -109.59835016817334 13.376884623030406)"  >
<path style="stroke: none; stroke-width: 1; stroke-dasharray: none; stroke-linecap: butt; stroke-dashoffset: 0; stroke-linejoin: miter; stroke-miterlimit: 4; fill: rgb(217,217,216); fill-rule: evenodd; opacity: 1;"  paint-order="stroke"  transform=" translate(-193.91578530668463, -1684.5149999999999)" d="M 165.742 1684.46 C 165.176 1664.69 165.191 1642.88 165.605 1618.16 L 196.21099999999998 1653.96 C 198.32 1666.23 200.61299999999997 1678.28 203.14499999999998 1688.32 C 208.59799999999998 1709.98 218.69099999999997 1734.3999999999999 222.527 1750.87 L 165.742 1684.4599999999998" stroke-linecap="round" />
</g>
		<g transform="matrix(0.15749367265814668 0 0 -0.15749367265814668 40.92326388423584 43.98285616012316)"  >
<path style="stroke: none; stroke-width: 1; stroke-dasharray: none; stroke-linecap: butt; stroke-dashoffset: 0; stroke-linejoin: miter; stroke-miterlimit: 4; fill: rgb(255,255,255); fill-rule: evenodd; opacity: 1;"  paint-order="stroke"  transform=" translate(-1149.849, -1490.143)" d="M 1198.26 1639.13 L 1198.27 1616.7800000000002 C 1198.27 1606.7200000000003 1196.49 1606.5200000000002 1194.54 1598.1600000000003 C 1185.92 1610.5800000000004 1177.53 1665.5900000000004 1166.08 1688.8900000000003 C 1155.21 1711.0200000000004 1137.75 1754.3000000000004 1116.34 1762.0500000000004 C 1140.8799999999999 1715.6800000000005 1161.02 1669.7500000000005 1161.03 1598.1600000000003 C 1129.11 1619.5300000000002 1098.8999999999999 1642.8600000000004 1045.57 1642.8600000000004 C 1063.52 1627.2700000000004 1102.3 1611.6600000000003 1108.8799999999999 1586.9900000000005 C 1100.36 1586.9900000000005 1065.7099999999998 1575.8100000000004 1033.7399999999998 1566.3200000000004 C 1048.4699999999998 1561.7800000000004 1063.6499999999999 1550.7700000000004 1079.3099999999997 1531.3900000000003 C 1034.2599999999998 1493.5800000000004 989.5629999999998 1495.8400000000004 945.0899999999997 1525.5100000000002 C 955.1289999999997 1536.5900000000001 965.3789999999997 1546.2700000000002 975.8479999999997 1553.6500000000003 C 970.5199999999998 1555.5200000000002 980.4489999999997 1564.5000000000002 1017.9799999999997 1586.1000000000004 C 969.4449999999997 1582.0900000000004 955.9299999999997 1564.6100000000004 925.5629999999996 1535.6800000000003 C 912.5549999999996 1523.3100000000004 833.7379999999996 1460.9500000000003 833.5159999999996 1458.5100000000002 L 907.7769999999996 1467.8000000000002 C 909.3279999999996 1467.9800000000002 1066.4799999999996 1427.4 1101.6999999999996 1423.3500000000001 C 1153.2399999999996 1417.44 1159.5199999999995 1426.44 1196.7899999999995 1399.2700000000002 C 1218.3399999999995 1383.5500000000002 1242.9499999999996 1357.1600000000003 1242.9499999999996 1322.5300000000002 L 1242.9499999999996 1300.1800000000003 C 1272.6399999999996 1297.7100000000003 1326.3899999999996 1257.3900000000003 1339.9099999999996 1236.9900000000002 C 1369.9399999999996 1191.6700000000003 1333.2899999999997 1151.1900000000003 1283.9199999999996 1151.1900000000003 L 1257.5999999999997 1149.7200000000003 L 1205.7099999999996 1158.6400000000003 C 1227.4699999999996 1126.1400000000003 1346.5399999999995 1050.6200000000003 1399.3599999999997 1050.6200000000003 L 1399.3599999999997 1046.8900000000003 C 1295.8899999999996 1046.8900000000003 1220.4899999999998 1101.3000000000004 1156.6099999999997 1143.0400000000004 C 1104.3499999999997 1177.1800000000005 990.1019999999996 1236.8600000000004 907.7769999999997 1236.8600000000004 L 851.9139999999998 1236.8600000000004 C 828.9099999999997 1236.8600000000004 795.2299999999998 1228.0200000000004 781.1599999999997 1218.2300000000002 C 801.6759999999997 1213.4500000000003 859.3669999999997 1194.8400000000001 859.3669999999997 1173.5400000000002 L 859.3669999999997 1166.0900000000001 C 859.3749999999998 1153.8300000000002 772.0899999999997 1109.0200000000002 754.0859999999998 1088.88 C 718.3199999999998 1048.8100000000002 710.3979999999998 1019.9100000000001 710.3979999999998 946.3280000000001 C 730.3089999999997 969.2420000000001 732.0469999999998 1063.3000000000002 803.5039999999998 1069.25 C 802.0079999999998 1051.18 796.0629999999998 1045.91 796.0629999999998 1024.55 L 796.0629999999998 1009.65 C 796.0629999999998 980.211 833.2109999999998 925.2379999999999 851.9139999999998 920.246 C 841.1249999999998 940.656 829.5659999999998 975.531 829.5659999999998 1005.92 C 829.5659999999998 1045.19 840.1719999999998 1061.03 855.7029999999997 1083.62 L 896.6089999999997 1087.87 L 904.0589999999997 1087.87 C 962.6909999999997 1087.87 1062.5499999999997 1038.27 1117.0399999999997 1021.5099999999999 C 1189.3899999999996 999.2619999999998 1261.2999999999997 979.8479999999998 1354.6899999999998 979.8479999999998 C 1422.12 979.8479999999998 1430.6699999999998 990.6679999999999 1470.1299999999999 1017.0899999999998 C 1509.2099999999998 1017.0899999999998 1589.3 1042.1699999999998 1589.3 1072.9699999999998 C 1589.3 1112.7299999999998 1548.34 1124.1299999999999 1548.34 1177.2599999999998 C 1548.34 1191.3899999999999 1560.9299999999998 1209.2299999999998 1566.9599999999998 1218.2299999999998 C 1534.8199999999997 1266.2399999999998 1452.0299999999997 1329.9899999999998 1407.7299999999998 1371.8599999999997 C 1366.6899999999998 1410.6599999999996 1250.3999999999999 1459.6899999999996 1250.3999999999999 1527.3899999999996 L 1250.3999999999999 1579.5399999999997 C 1250.3999999999999 1601.3299999999997 1265.29 1620.4499999999998 1265.3 1624.2499999999998 C 1265.3 1671.4099999999999 1176.96 1842.6999999999998 1153.58 1877.5399999999997 C 1097.4499999999998 1961.1799999999998 1054.79 2003.9799999999998 971.098 2060.04 C 971.2539999999999 2059.43 1087.46 1893.23 1102.9299999999998 1867.83 C 1132.07 1819.96 1198.2699999999998 1708.49 1198.2599999999998 1639.1299999999999" stroke-linecap="round" />
</g>
		<g transform="matrix(0.15749367265814668 0 0 -0.15749367265814668 -18.890063652871618 -94.1393936105452)"  >
<path style="stroke: none; stroke-width: 1; stroke-dasharray: none; stroke-linecap: butt; stroke-dashoffset: 0; stroke-linejoin: miter; stroke-miterlimit: 4; fill: rgb(255,255,255); fill-rule: evenodd; opacity: 1;"  paint-order="stroke"  transform=" translate(-769.9865, -2367.33)" d="M 624.746 2559.16 C 684.832 2543.1099999999997 726.777 2384.56 751.855 2321.2599999999998 C 786.523 2233.77 818.77 2141.68 915.2270000000001 2115.8999999999996 C 915.2270000000001 2192.0599999999995 882.238 2318.5799999999995 869.027 2397.4799999999996 C 853.8050000000001 2488.4299999999994 832.4300000000001 2618.7599999999998 721.57 2618.7599999999998 C 688.625 2618.7599999999998 631.2460000000001 2583.5099999999998 624.7460000000001 2559.16" stroke-linecap="round" />
</g>
		<g transform="matrix(0.15749367265814668 0 0 -0.15749367265814668 112.75920613319596 97.35448329088078)"  >
<path style="stroke: none; stroke-width: 1; stroke-dasharray: none; stroke-linecap: butt; stroke-dashoffset: 0; stroke-linejoin: miter; stroke-miterlimit: 4; fill: rgb(255,255,255); fill-rule: evenodd; opacity: 1;"  paint-order="stroke"  transform=" translate(-1606.065, -1151.19)" d="M 1574.41 1195.89 C 1600.41 1193.73 1616.68 1181 1626.8500000000001 1163.1100000000001 L 1566.96 1184.71 L 1566.96 1169.82 C 1566.96 1134.8899999999999 1587.45 1105.3 1607.93 1091.59 C 1620.89 1100.27 1645.17 1119.51 1645.16 1140.01 L 1645.17 1158.64 C 1645.17 1188.3000000000002 1599.73 1204.89 1574.41 1210.7900000000002 L 1574.41 1195.89" stroke-linecap="round" />
</g>
		<g transform="matrix(0.15749367265814668 0 0 -0.15749367265814668 -45.73282300020679 -1.7645231967168513)"  >
<path style="stroke: none; stroke-width: 1; stroke-dasharray: none; stroke-linecap: butt; stroke-dashoffset: 0; stroke-linejoin: miter; stroke-miterlimit: 4; fill: rgb(255,255,255); fill-rule: evenodd; opacity: 1;"  paint-order="stroke"  transform=" translate(-599.5135655097672, -1780.675500418678)" d="M 311.914 2164.32 C 283.188 2145.1000000000004 264.28499999999997 2119.54 226.195 2097.3500000000004 C 218.43 2092.8100000000004 207.82 2087.8700000000003 195.691 2083.2000000000003 C 189.891 2063.8900000000003 183.371 2044.8900000000003 176.152 2026.2500000000002 C 226.879 2039.5900000000001 277.738 2059.53 300.738 2074.9300000000003 C 291.531 2040.4700000000003 205.699 1959.0700000000004 179.027 1902.4200000000003 C 140.313 1820.2000000000003 133.15599999999998 1768.5400000000004 135.12099999999998 1648.6400000000003 L 222.527 1750.8700000000003 C 218.69099999999997 1734.4000000000003 208.59799999999998 1709.9800000000002 203.14499999999998 1688.3200000000004 C 197.891 1667.4800000000005 193.676 1637.9600000000005 189.93399999999997 1615.8700000000003 C 182.24999999999997 1570.4600000000003 181.56599999999997 1504.3900000000003 181.56599999999997 1452.9000000000003 L 180.08999999999997 1396.8600000000004 L 189.01199999999997 1315.0800000000004 C 204.99199999999996 1333.4700000000005 216.72699999999998 1383.0500000000004 241.14799999999997 1389.5700000000004 C 242.03499999999997 1349.6400000000003 269.109 1202.3500000000004 291.977 1196.7100000000005 L 319.359 1236.8600000000006 C 357.914 1156.5000000000007 365.90999999999997 1137.6200000000006 432.051 1081.3900000000006 C 460.695 1057.0400000000006 567.371 990.8400000000006 609.852 987.3010000000006 C 588.48 1005.8700000000006 542.4689999999999 1025.2200000000007 516.047 1046.2000000000007 C 492.113 1065.2100000000007 455.055 1098.9800000000007 436.98 1123.5700000000006 C 383.10200000000003 1196.9000000000005 364.047 1238.8300000000006 362.238 1364.7300000000007 L 326.813 1318.8000000000006 L 326.813 1363.5000000000007 C 326.813 1441.5000000000007 354.813 1475.4700000000007 367.02299999999997 1533.0700000000006 L 300.73799999999994 1508.7700000000007 C 309.12899999999996 1540.1800000000007 383.18399999999997 1607.1300000000006 411.65599999999995 1625.0500000000006 C 461.77699999999993 1656.5700000000006 506.92999999999995 1680.1100000000006 587.496 1680.1100000000006 L 591.227 1680.1100000000006 C 649.063 1680.1100000000006 662.516 1657.5000000000007 695.5 1635.4100000000005 C 693.883 1654.8700000000006 664.02 1694.8100000000006 651.801 1707.1700000000005 C 621.488 1737.8200000000006 615.289 1733.5000000000005 583.773 1754.6000000000006 C 612.246 1808.4200000000005 719.965 1884.9700000000007 803.504 1884.9700000000007 L 818.398 1884.9700000000007 C 877.129 1884.9700000000007 924.9100000000001 1858.6100000000008 961.414 1834.3100000000006 C 1008.18 1803.1800000000005 1031.97 1763.3200000000006 1064.2 1739.7100000000007 C 1059.79 1792.6300000000008 960.527 1901.8600000000008 933.1170000000001 1943.8400000000006 C 915.6370000000001 1970.6400000000006 878.969 2001.2000000000005 854.6170000000001 2032.9400000000005 C 832.0780000000001 2062.3300000000004 806.5160000000001 2104.5300000000007 791.109 2140.7700000000004 C 742.293 2255.4800000000005 687.09 2574.0600000000004 550.2620000000001 2574.05 C 458.53100000000006 2574.0600000000004 410.023 2484.5 375.28100000000006 2425.01 C 336.15600000000006 2358.03 311.91400000000004 2269.1800000000003 311.91400000000004 2164.32 z M 636.973 2306.86 L 601.8009999999999 2345.4900000000002 L 598.6759999999999 2343.1200000000003 C 601.949 2303.76 632.1879999999999 2258.2500000000005 631.2379999999999 2193.3700000000003 L 597.813 2231.2400000000002 L 606.129 2171.78 L 606.129 2112.1800000000003 C 606.129 2074.5000000000005 581.898 2034.8400000000004 542.816 2033.9600000000003 C 544.1370000000001 2018.1100000000004 560.195 2000.4400000000003 576.336 2000.4400000000003 C 635.34 2000.4400000000003 669.434 2136.7900000000004 669.434 2197.84 L 669.434 2257.44 C 669.434 2304.2200000000003 630.6129999999999 2425.75 608.7189999999999 2444.2200000000003 L 636.973 2306.86" stroke-linecap="round" />
</g>
</g>
</g>
<g transform="matrix(1.9211538461538462 0 0 1.9211538461538462 636.3193915219114 791.9930265531445)" id="text-logo-path-group"  >
<g style=""  paint-order="stroke"   >
		<g transform="matrix(1 0 0 1 0 0)" id="text-logo-path-0"  >
<path style="stroke: none; stroke-width: 0; stroke-dasharray: none; stroke-linecap: butt; stroke-dashoffset: 0; stroke-linejoin: miter; stroke-miterlimit: 4; fill: rgb(244,244,243); fill-rule: nonzero; opacity: 1;"  paint-order="stroke"  transform=" translate(-202.82, 21.565)" d="M 11.38 0 L -1.7 0 L -1.7 -0.6 L -1.16 -0.6 Q 0.24 -0.6 1.64 -1.47 Q 3.04 -2.35 3.96 -4.05 L 3.96 -4.05 L 18.08 -35.92 Q 18.82 -37.44 19.91 -40.12 Q 21 -42.8 21.09 -43.93 L 21.09 -43.93 L 21.62 -43.93 L 39.76 -4.14 Q 40.69 -2.38 42.1 -1.49 Q 43.52 -0.6 44.98 -0.6 L 44.98 -0.6 L 45.48 -0.6 L 45.48 0 L 26.03 0 L 26.03 -0.6 L 26.57 -0.6 Q 27.94 -0.6 28.77 -1.67 L 28.77 -1.67 Q 29.25 -2.26 29.25 -3.07 L 29.25 -3.07 Q 29.25 -3.69 28.95 -4.44 L 28.95 -4.44 L 25.94 -11.97 L 11.62 -11.97 L 8.49 -4.44 Q 8.16 -3.66 8.16 -3.04 L 8.16 -3.04 Q 8.16 -2.26 8.64 -1.67 L 8.64 -1.67 Q 9.5 -0.6 10.84 -0.6 L 10.84 -0.6 L 11.38 -0.6 L 11.38 0 Z M 18.94 -29.52 L 12.69 -14.54 L 24.9 -14.54 L 18.94 -29.52 Z M 62.97 0 L 46.17 0 L 46.17 -0.6 L 46.91 -0.6 Q 48.25 -0.6 49.19 -1.52 Q 50.13 -2.44 50.16 -3.78 L 50.16 -3.78 L 50.16 -32.82 Q 50.13 -34.16 49.21 -35.07 Q 48.28 -35.98 46.94 -35.98 L 46.94 -35.98 L 46.17 -35.98 L 46.17 -36.61 L 64.93 -36.61 Q 67.05 -36.61 68.92 -36.31 Q 70.8 -36.01 72.54 -35.27 Q 74.28 -34.52 75.52 -33.4 Q 76.76 -32.29 77.5 -30.54 Q 78.25 -28.8 78.25 -26.6 L 78.25 -26.6 Q 78.25 -24.93 77.75 -23.35 Q 77.26 -21.77 76.28 -20.39 Q 75.3 -19 73.61 -18.02 Q 71.93 -17.04 69.76 -16.74 L 69.76 -16.74 Q 71.42 -16.23 73.05 -14.7 Q 74.67 -13.17 75.65 -11.56 L 75.65 -11.56 Q 77.44 -8.31 80.09 -4.77 L 80.09 -4.77 Q 81.88 -2.32 83.18 -1.46 Q 84.47 -0.6 86.35 -0.6 L 86.35 -0.6 L 86.35 0 L 81.22 0 Q 76.19 0 73.47 -1.24 Q 70.74 -2.47 68.6 -5.84 L 68.6 -5.84 Q 67.43 -7.71 66.17 -10.23 Q 64.9 -12.75 64.51 -14.18 L 64.51 -14.18 Q 63.8 -15.96 62.8 -16.89 Q 61.8 -17.81 60.85 -17.9 L 60.85 -17.9 L 60.85 -18.41 L 62.4 -18.41 Q 63.47 -18.41 64.34 -18.66 Q 65.2 -18.91 66.11 -19.54 Q 67.02 -20.16 67.7 -21.42 Q 68.39 -22.67 68.74 -24.51 L 68.74 -24.51 Q 68.95 -25.44 68.95 -26.57 L 68.95 -26.57 Q 68.95 -26.81 68.95 -27.07 L 68.95 -27.07 Q 68.86 -28.8 68.36 -30.1 Q 67.85 -31.39 67.17 -32.11 Q 66.48 -32.82 65.56 -33.27 Q 64.63 -33.72 63.93 -33.87 Q 63.23 -34.01 62.46 -34.04 L 62.46 -34.04 Q 61.57 -34.07 60.37 -34.07 Q 59.18 -34.07 58.97 -34.07 L 58.97 -34.07 L 58.97 -3.84 Q 58.97 -2.41 60 -1.5 Q 61.03 -0.6 62.31 -0.6 L 62.31 -0.6 L 62.97 -0.6 L 62.97 0 Z M 84.74 -18.32 L 84.74 -18.32 Q 84.74 -27.28 90.56 -32.33 Q 96.38 -37.38 106.72 -37.38 L 106.72 -37.38 Q 110.71 -37.38 114.32 -36.61 Q 117.92 -35.83 120.48 -34.61 L 120.48 -34.61 L 120.48 -24.9 L 120 -24.9 Q 118.52 -30.29 115.33 -32.63 Q 112.14 -34.97 107.35 -34.97 L 107.35 -34.97 Q 100.85 -34.97 97.44 -30.53 Q 94.03 -26.09 94.03 -18.44 Q 94.03 -10.78 97.41 -6.27 Q 100.79 -1.76 106.75 -1.64 L 106.75 -1.64 Q 106.81 -1.64 106.87 -1.64 L 106.87 -1.64 Q 113.3 -1.61 116.49 -4.71 L 116.49 -4.71 Q 119.71 -7.8 120.84 -15.28 L 120.84 -15.28 L 121.31 -15.28 L 122.03 -6.11 Q 120.12 -2.98 116.24 -1.09 Q 112.35 0.8 106.72 0.8 L 106.72 0.8 Q 96.47 0.74 90.61 -4.29 Q 84.74 -9.32 84.74 -18.32 Z M 125.51 -27.91 L 124.89 -27.91 L 124.89 -37.59 Q 125.72 -37.26 127.7 -36.96 Q 129.68 -36.67 131.29 -36.67 L 131.29 -36.67 L 153.81 -36.67 Q 155.48 -36.67 157.55 -36.98 Q 159.62 -37.29 160.21 -37.59 L 160.21 -37.59 L 160.21 -27.91 L 159.59 -27.91 L 159.59 -28.47 Q 159.62 -31.1 158.14 -32.64 Q 156.67 -34.19 154.02 -34.22 L 154.02 -34.22 L 146.96 -34.22 L 146.96 -3.78 Q 146.99 -2.44 147.97 -1.52 Q 148.96 -0.6 150.33 -0.6 L 150.33 -0.6 L 150.98 -0.6 L 150.98 0 L 134.12 0 L 134.12 -0.6 L 134.78 -0.6 Q 136.18 -0.6 137.15 -1.53 Q 138.11 -2.47 138.14 -3.84 L 138.14 -3.84 L 138.14 -34.22 L 131.08 -34.22 Q 128.43 -34.19 126.97 -32.66 Q 125.51 -31.13 125.51 -28.47 L 125.51 -28.47 L 125.51 -27.91 Z M 180.74 0 L 163.4 0 L 163.4 -0.63 L 164.15 -0.63 Q 165.58 -0.63 166.6 -1.55 Q 167.63 -2.47 167.66 -3.84 L 167.66 -3.84 L 167.66 -32.76 Q 167.63 -34.13 166.6 -35.06 Q 165.58 -35.98 164.15 -35.98 L 164.15 -35.98 L 163.4 -35.98 L 163.4 -36.61 L 180.71 -36.61 L 180.71 -35.98 L 180.02 -35.98 Q 178.56 -35.98 177.53 -35.07 Q 176.51 -34.16 176.45 -32.79 L 176.45 -32.79 L 176.45 -3.84 Q 176.48 -2.47 177.52 -1.53 Q 178.56 -0.6 180.02 -0.6 L 180.02 -0.6 L 180.74 -0.6 L 180.74 0 Z M 184.28 -18.32 L 184.28 -18.32 Q 184.28 -27.28 190.1 -32.33 Q 195.93 -37.38 206.26 -37.38 L 206.26 -37.38 Q 210.25 -37.38 213.86 -36.61 Q 217.46 -35.83 220.02 -34.61 L 220.02 -34.61 L 220.02 -24.9 L 219.55 -24.9 Q 218.06 -30.29 214.87 -32.63 Q 211.68 -34.97 206.89 -34.97 L 206.89 -34.97 Q 200.39 -34.97 196.98 -30.53 Q 193.57 -26.09 193.57 -18.44 Q 193.57 -10.78 196.95 -6.27 Q 200.33 -1.76 206.29 -1.64 L 206.29 -1.64 Q 206.35 -1.64 206.41 -1.64 L 206.41 -1.64 Q 212.84 -1.61 216.03 -4.71 L 216.03 -4.71 Q 219.25 -7.8 220.38 -15.28 L 220.38 -15.28 L 220.86 -15.28 L 221.57 -6.11 Q 219.67 -2.98 215.78 -1.09 Q 211.89 0.8 206.26 0.8 L 206.26 0.8 Q 196.02 0.74 190.15 -4.29 Q 184.28 -9.32 184.28 -18.32 Z M 244.54 0 L 226.01 0 L 226.01 -0.6 L 226.78 -0.6 Q 228.39 -0.6 229.52 -1.73 Q 230.66 -2.86 230.69 -4.44 L 230.69 -4.44 L 230.69 -38.45 Q 230.69 -39.94 229.51 -41.01 Q 228.33 -42.09 226.78 -42.09 L 226.78 -42.09 L 226.01 -42.09 L 226.01 -42.71 L 249.39 -42.71 Q 251.3 -42.74 253.55 -43.08 Q 255.79 -43.43 256.69 -43.81 L 256.69 -43.81 L 256.69 -33.48 L 256.06 -33.48 L 256.06 -34.1 Q 256.06 -36.78 254.5 -38.39 Q 252.94 -40 250.25 -40.09 L 250.25 -40.09 L 239.83 -40.09 L 239.83 -22.34 L 247.93 -22.34 Q 250.2 -22.37 251.64 -23.86 Q 253.08 -25.35 253.08 -27.58 L 253.08 -27.58 L 253.08 -28.09 L 253.68 -28.12 L 253.68 -14 L 253.08 -14.03 L 253.08 -14.54 Q 253.08 -16.74 251.64 -18.23 Q 250.2 -19.72 247.99 -19.78 L 247.99 -19.78 L 239.83 -19.78 L 239.83 -4.44 Q 239.86 -2.86 241.01 -1.73 Q 242.15 -0.6 243.76 -0.6 L 243.76 -0.6 L 244.51 -0.6 L 244.54 0 Z M 261.48 -18.29 L 261.48 -18.29 Q 261.48 -27.07 267.4 -32.23 Q 273.31 -37.38 283.05 -37.38 L 283.05 -37.38 Q 289.51 -37.38 294.4 -35.09 Q 299.28 -32.79 301.98 -28.44 Q 304.67 -24.1 304.67 -18.29 L 304.67 -18.29 Q 304.67 -9.53 298.75 -4.36 Q 292.82 0.8 283.05 0.8 L 283.05 0.8 Q 273.31 0.8 267.4 -4.36 Q 261.48 -9.53 261.48 -18.29 Z M 270.84 -18.29 L 270.84 -18.29 Q 270.84 -10.6 274.16 -6.11 Q 277.48 -1.61 283.05 -1.61 L 283.05 -1.61 Q 288.65 -1.61 291.97 -6.11 Q 295.29 -10.6 295.29 -18.29 L 295.29 -18.29 Q 295.29 -26 291.97 -30.49 Q 288.65 -34.97 283.05 -34.97 L 283.05 -34.97 Q 277.48 -34.97 274.16 -30.49 Q 270.84 -26 270.84 -18.29 Z M 316.44 0 L 303.03 0 L 303.03 -0.6 L 303.78 -0.6 Q 306.67 -0.6 308.96 -3.28 L 308.96 -3.28 L 319.8 -17.54 L 309.68 -33.33 Q 308.81 -34.49 307.38 -35.27 Q 305.95 -36.04 304.43 -36.04 L 304.43 -36.04 L 303.72 -36.04 L 303.72 -36.67 L 322.51 -36.67 L 322.51 -36.04 L 321.86 -36.04 Q 320.7 -36.04 319.98 -35.03 L 319.98 -35.03 Q 319.62 -34.49 319.62 -33.96 L 319.62 -33.96 Q 319.62 -33.45 319.95 -32.94 L 319.95 -32.94 L 326.42 -22.93 L 332.91 -32.91 Q 333.24 -33.42 333.24 -33.96 L 333.24 -33.96 Q 333.27 -34.49 332.91 -35 L 332.91 -35 Q 332.25 -36.04 331.06 -36.04 L 331.06 -36.04 L 330.41 -36.04 L 330.41 -36.67 L 343.75 -36.67 L 343.75 -36.04 L 343.01 -36.04 Q 341.49 -36.04 340.1 -35.28 Q 338.72 -34.52 337.79 -33.33 L 337.79 -33.33 L 328.47 -19.75 L 339.04 -3.4 Q 339.91 -2.17 341.34 -1.39 Q 342.77 -0.6 344.32 -0.6 L 344.32 -0.6 L 345.03 -0.6 L 345.03 0 L 326.15 0 L 326.15 -0.6 L 326.8 -0.6 Q 327.96 -0.6 328.65 -1.61 L 328.65 -1.61 Q 329.01 -2.14 329.01 -2.68 L 329.01 -2.68 Q 329.01 -3.19 328.68 -3.72 L 328.68 -3.72 L 321.77 -14.48 L 313.94 -3.75 Q 313.55 -3.19 313.55 -2.65 L 313.55 -2.65 Q 313.55 -2.14 313.91 -1.61 L 313.91 -1.61 Q 314.62 -0.6 315.78 -0.6 L 315.78 -0.6 L 316.44 -0.6 L 316.44 0 Z M 374.85 0 L 346.28 0 L 346.28 -0.63 L 347.03 -0.63 Q 348.37 -0.63 349.34 -1.55 Q 350.3 -2.47 350.33 -3.81 L 350.33 -3.81 L 350.33 -32.82 Q 350.3 -34.19 349.35 -35.1 Q 348.4 -36.01 347.03 -36.01 L 347.03 -36.01 L 346.28 -36.01 L 346.28 -36.61 L 367.76 -36.61 Q 369.4 -36.61 371.36 -36.9 Q 373.33 -37.2 374.1 -37.53 L 374.1 -37.53 L 374.1 -27.82 L 373.48 -27.82 L 373.48 -28.39 Q 373.48 -31.04 372 -32.58 Q 370.53 -34.13 367.91 -34.16 L 367.91 -34.16 L 359.12 -34.16 L 359.12 -19.36 L 366.06 -19.36 Q 368.17 -19.39 369.46 -20.75 Q 370.74 -22.1 370.74 -24.19 L 370.74 -24.19 L 370.74 -24.57 L 371.36 -24.57 L 371.36 -11.68 L 370.74 -11.68 L 370.74 -12.09 Q 370.74 -14.15 369.48 -15.5 Q 368.23 -16.86 366.15 -16.92 L 366.15 -16.92 L 359.12 -16.92 L 359.12 -2.44 L 366.48 -2.44 Q 370.26 -2.47 372.9 -4.78 Q 375.53 -7.09 376.75 -11.23 L 376.75 -11.23 L 377.35 -11.23 L 375 0 L 374.85 0 Z M 381.52 -7.12 L 381.52 -7.12 Q 381.96 -9.98 383.1 -11.74 L 383.1 -11.74 L 383.57 -11.74 Q 383.54 -11.38 383.54 -10.99 L 383.54 -10.99 Q 383.54 -7.21 386.1 -4.53 L 386.1 -4.53 Q 388.88 -1.61 393.58 -1.64 L 393.58 -1.64 Q 393.64 -1.64 393.67 -1.64 L 393.67 -1.64 Q 397.1 -1.67 398.91 -3.23 Q 400.73 -4.8 400.73 -7.18 L 400.73 -7.18 Q 400.73 -8.7 399.69 -9.9 Q 398.64 -11.11 396.17 -12.66 L 396.17 -12.66 L 387.48 -18.17 Q 382.02 -21.62 382.02 -26.96 L 382.02 -26.96 Q 382.02 -27.52 382.08 -28.15 L 382.08 -28.15 Q 382.47 -32.47 385.43 -34.92 Q 388.4 -37.38 393.1 -37.38 L 393.1 -37.38 Q 396.65 -37.38 401.03 -36.81 L 401.03 -36.81 L 404.33 -36.81 L 403.47 -28.83 L 402.96 -28.83 Q 402.96 -31.63 400.97 -33.28 Q 398.97 -34.94 395.37 -34.94 L 395.37 -34.94 Q 392.48 -34.94 390.65 -33.61 Q 388.82 -32.29 388.7 -30.2 L 388.7 -30.2 Q 388.64 -29.4 388.89 -28.71 Q 389.14 -28.03 389.78 -27.42 Q 390.42 -26.81 391 -26.4 Q 391.59 -26 392.66 -25.35 L 392.66 -25.35 L 402.31 -19.42 Q 407.34 -16.35 407.34 -10.99 L 407.34 -10.99 Q 407.34 -10.63 407.31 -10.28 L 407.31 -10.28 Q 407.01 -5.09 403.19 -2.14 Q 399.36 0.8 392.99 0.8 L 392.99 0.8 Q 389.11 0.8 386.09 -0.1 Q 383.07 -1.01 381.73 -2.47 L 381.73 -2.47 Q 381.34 -3.54 381.34 -4.97 L 381.34 -4.97 Q 381.34 -5.96 381.52 -7.12 Z" stroke-linecap="round" />
</g>
</g>
</g>
</svg>